<svg id="Camada_1" data-name="Camada 1" xmlns="http://www.w3.org/2000/svg" viewBox="0 0 312.98 87.69"><defs><style>.cls-1{fill:#e7bfab;}.cls-2,.cls-8{fill:#070308;}.cls-3{fill:#cdcfd0;}.cls-4{fill:#fff;}.cls-5{fill:#e6bca7;}.cls-6{fill:#efeff0;}.cls-7{fill:#d9a086;}.cls-8{stroke:#716ea9;stroke-miterlimit:10;stroke-width:6px;}</style></defs><title>logoInfo</title><path class="cls-1" d="M266.26,298.75s.52-10.16-7.72-10.12-7.71,10.12-7.71,10.12c-1-.05-2-.08-1.8,2.5a3,3,0,0,0,2.62,2.83,10,10,0,0,0,3,6.24c1.23,1.09,3.84,1.09,3.84,1.09s2.62,0,3.85-1.09a10,10,0,0,0,3.05-6.24,3,3,0,0,0,2.62-2.83C268.28,298.67,267.22,298.7,266.26,298.75Z" transform="translate(-144.52 -257.15)"/><path class="cls-2" d="M269.2,291.46a5.73,5.73,0,0,0-3.66-5.17.09.09,0,0,1,0-.17,4.58,4.58,0,0,1,1.12.06c-2.52-1.78-6.19-1.55-7.64-1.37a.16.16,0,0,1-.1-.3,8.28,8.28,0,0,1,2.54-.89c-6.31.12-8.94,2.75-9.68,3.68a.1.1,0,0,1-.18-.09,7.86,7.86,0,0,1,1.07-2.26,4.78,4.78,0,0,0-2.56,4.82,4.62,4.62,0,0,0-1.62,4.32c.71,5,1.1,4.88,1.1,4.88s1.2-.22,1.37,2c0,0,.17-4.91.34-5.62a16,16,0,0,0,2-3.73s8.46-2.58,11.32,2.2c1.1,1.83.81,6.61.81,6.61s.4-1.74,1.51-1.62a42.3,42.3,0,0,0,.74-6,1.85,1.85,0,0,1,.56,1,6.28,6.28,0,0,0-.13-3.37.07.07,0,0,1,.12-.08C268.69,290.75,269.2,291.46,269.2,291.46Z" transform="translate(-144.52 -257.15)"/><polygon class="cls-3" points="110.04 55.6 109.48 55.6 109.99 56.07 110.04 55.6"/><path class="cls-4" d="M275.09,317.14l-9.73-2.78-3.95,6-2.29-2.9-.05,0-.06,0,0,0-2.3,2.9-3.89-5.88-9.79,2.7a29,29,0,0,0-4,5.88h40.09A29.17,29.17,0,0,0,275.09,317.14Z" transform="translate(-144.52 -257.15)"/><path class="cls-5" d="M262.57,310.16l-.18.16Z" transform="translate(-144.52 -257.15)"/><path class="cls-5" d="M254.84,310.43h0l0,.37.05-.36Z" transform="translate(-144.52 -257.15)"/><path class="cls-5" d="M263.33,311l-.2-1.43a6.58,6.58,0,0,1-.56.6,6.67,6.67,0,0,0,.56-.6Z" transform="translate(-144.52 -257.15)"/><path class="cls-5" d="M259,317.4l.06,0,.05,0h0l4.51-4.2-.06-.46-.24-1.77a9.12,9.12,0,0,1-4.41,2.26c-1.11,0-4-1.93-4.18-2.07l-.17,1.57-.06.47Z" transform="translate(-144.52 -257.15)"/><polygon class="cls-6" points="114.5 60.26 114.49 60.24 109.99 56.07 109.48 55.6 108.25 57.2 108.31 57.29 112.2 63.16 114.5 60.26"/><polygon class="cls-6" points="119.11 56.1 119.1 56.07 114.59 60.26 114.59 60.26 116.89 63.16 120.83 57.21 120.84 57.2 119.61 55.6 119.11 56.1"/><polygon class="cls-3" points="119.11 56.1 119.61 55.6 119.61 55.6 119.04 55.6 119.04 55.6 119.1 56.07 119.11 56.1"/><path class="cls-7" d="M258.92,313.25a9.12,9.12,0,0,0,4.41-2.26h0l-.2-1.43a6.67,6.67,0,0,1-.56.6h0l-.18.16c-1.23,1.09-3.85,1.09-3.85,1.09a7.35,7.35,0,0,1-3.7-1h0l-.05.36-.05.39h0C254.94,311.32,257.81,313.27,258.92,313.25Z" transform="translate(-144.52 -257.15)"/><path class="cls-8" d="M148.5,329.77l10.94-12.18c4.52,5,8.92,7.89,14.45,7.89,6.54,0,10.6-3.94,10.6-13.08V261.51h17.83v51.68c0,9.36-2.71,16.36-7.45,21.1s-12,7.33-20.53,7.33C162,341.62,153.92,336.2,148.5,329.77Z" transform="translate(-144.52 -257.15)"/><path class="cls-8" d="M216.54,301.23V301c0-22.45,17.71-40.85,42.08-40.85s41.87,18.17,41.87,40.62V301c0,22.45-17.72,40.85-42.09,40.85S216.54,323.68,216.54,301.23Zm65.78,0V301c0-13.54-9.93-24.82-23.92-24.82s-23.7,11.05-23.7,24.59V301c0,13.54,9.93,24.82,23.92,24.82S282.32,314.77,282.32,301.23Z" transform="translate(-144.52 -257.15)"/><path class="cls-8" d="M315.94,261.51h36.67c9,0,16.14,2.48,20.65,7a18.15,18.15,0,0,1,5.42,13.43v.23c0,8.91-4.74,13.88-10.38,17,9.14,3.5,14.78,8.81,14.78,19.41v.23c0,14.44-11.74,21.66-29.56,21.66H315.94Zm32.95,31.93c7.67,0,12.52-2.48,12.52-8.35v-.22c0-5.2-4.06-8.13-11.39-8.13H332.87v16.7Zm4.63,31.82c7.67,0,12.29-2.71,12.29-8.58v-.22c0-5.3-3.94-8.58-12.86-8.58H332.87v17.38Z" transform="translate(-144.52 -257.15)"/><path class="cls-8" d="M392,329l10.27-12.3c7.11,5.87,14.55,9.59,23.58,9.59,7.11,0,11.4-2.82,11.4-7.44v-.23c0-4.4-2.71-6.66-15.91-10-15.91-4.06-26.18-8.46-26.18-24.15v-.22c0-14.33,11.51-23.81,27.64-23.81a45.73,45.73,0,0,1,29.34,10l-9,13.09c-7-4.85-13.87-7.78-20.53-7.78s-10.16,3-10.16,6.88v.22c0,5.19,3.39,6.89,17,10.38,16,4.18,25.05,9.93,25.05,23.7v.22c0,15.69-12,24.49-29,24.49A50.28,50.28,0,0,1,392,329Z" transform="translate(-144.52 -257.15)"/><path class="cls-4" d="M148.5,329.77l10.94-12.18c4.52,5,8.92,7.89,14.45,7.89,6.54,0,10.6-3.94,10.6-13.08V261.51h17.83v51.68c0,9.36-2.71,16.36-7.45,21.1s-12,7.33-20.53,7.33C162,341.62,153.92,336.2,148.5,329.77Z" transform="translate(-144.52 -257.15)"/><path class="cls-4" d="M216.54,301.23V301c0-22.45,17.71-40.85,42.08-40.85s41.87,18.17,41.87,40.62V301c0,22.45-17.72,40.85-42.09,40.85S216.54,323.68,216.54,301.23Zm65.78,0V301c0-13.54-9.93-24.82-23.92-24.82s-23.7,11.05-23.7,24.59V301c0,13.54,9.93,24.82,23.92,24.82S282.32,314.77,282.32,301.23Z" transform="translate(-144.52 -257.15)"/><path class="cls-4" d="M315.94,261.51h36.67c9,0,16.14,2.48,20.65,7a18.15,18.15,0,0,1,5.42,13.43v.23c0,8.91-4.74,13.88-10.38,17,9.14,3.5,14.78,8.81,14.78,19.41v.23c0,14.44-11.74,21.66-29.56,21.66H315.94Zm32.95,31.93c7.67,0,12.52-2.48,12.52-8.35v-.22c0-5.2-4.06-8.13-11.39-8.13H332.87v16.7Zm4.63,31.82c7.67,0,12.29-2.71,12.29-8.58v-.22c0-5.3-3.94-8.58-12.86-8.58H332.87v17.38Z" transform="translate(-144.52 -257.15)"/><path class="cls-4" d="M392,329l10.27-12.3c7.11,5.87,14.55,9.59,23.58,9.59,7.11,0,11.4-2.82,11.4-7.44v-.23c0-4.4-2.71-6.66-15.91-10-15.91-4.06-26.18-8.46-26.18-24.15v-.22c0-14.33,11.51-23.81,27.64-23.81a45.73,45.73,0,0,1,29.34,10l-9,13.09c-7-4.85-13.87-7.78-20.53-7.78s-10.16,3-10.16,6.88v.22c0,5.19,3.39,6.89,17,10.38,16,4.18,25.05,9.93,25.05,23.7v.22c0,15.69-12,24.49-29,24.49A50.28,50.28,0,0,1,392,329Z" transform="translate(-144.52 -257.15)"/></svg>