<svg id="Camada_1" data-name="Camada 1" xmlns="http://www.w3.org/2000/svg" viewBox="0 0 306 81.69"><defs><style>.cls-1{fill:#e7bfab;}.cls-2{fill:#070308;}.cls-3{fill:#cdcfd0;}.cls-4{fill:#fff;}.cls-5{fill:#e6bca7;}.cls-6{fill:#efeff0;}.cls-7{fill:#d9a086;}.cls-8{fill:#716da9;}</style></defs><title>logoInfo</title><path class="cls-1" d="M267,298.25s.58-11.26-8.55-11.22-8.56,11.22-8.56,11.22c-1.05-.06-2.23-.09-2,2.78a3.35,3.35,0,0,0,2.91,3.14,11.07,11.07,0,0,0,3.37,6.91c1.37,1.21,4.27,1.21,4.27,1.21s2.89,0,4.26-1.21a11,11,0,0,0,3.38-6.91A3.36,3.36,0,0,0,269,301C269.28,298.16,268.1,298.19,267,298.25Z" transform="translate(-148.5 -260.15)"/><path class="cls-2" d="M270.3,290.17a6.36,6.36,0,0,0-4.06-5.73.1.1,0,0,1,0-.19,5.27,5.27,0,0,1,1.25.07c-2.8-2-6.86-1.72-8.47-1.52a.18.18,0,0,1-.12-.33,9.09,9.09,0,0,1,2.83-1c-7,.13-9.92,3-10.73,4.08a.11.11,0,0,1-.2-.1A8.62,8.62,0,0,1,252,283a5.29,5.29,0,0,0-2.84,5.34,5.13,5.13,0,0,0-1.79,4.78c.78,5.6,1.22,5.42,1.22,5.42s1.32-.25,1.51,2.23c0,0,.19-5.45.38-6.24a18.09,18.09,0,0,0,2.28-4.13s9.37-2.86,12.54,2.44c1.22,2,.91,7.32.91,7.32s.43-1.92,1.66-1.79a48.49,48.49,0,0,0,.83-6.65,2.06,2.06,0,0,1,.62,1.08,7,7,0,0,0-.15-3.73.08.08,0,0,1,.13-.08C269.73,289.39,270.3,290.17,270.3,290.17Z" transform="translate(-148.5 -260.15)"/><polygon class="cls-3" points="105.58 53.62 104.96 53.62 105.52 54.14 105.58 53.62"/><path class="cls-4" d="M276.83,318.64,266,315.56l-4.37,6.6L259.12,319l-.05,0-.07,0,0,0-2.54,3.21-4.32-6.51-10.85,3a31.67,31.67,0,0,0-4.46,6.52h44.44A31.67,31.67,0,0,0,276.83,318.64Z" transform="translate(-148.5 -260.15)"/><path class="cls-5" d="M263,310.9c-.07.06-.13.13-.2.18S262.88,311,263,310.9Z" transform="translate(-148.5 -260.15)"/><path class="cls-5" d="M254.38,311.21h0l0,.4.05-.4Z" transform="translate(-148.5 -260.15)"/><path class="cls-5" d="M263.79,311.82l-.22-1.6a5.84,5.84,0,0,1-.62.67,8.08,8.08,0,0,0,.62-.66Z" transform="translate(-148.5 -260.15)"/><path class="cls-5" d="M259,318.93l.07,0,.05,0h0l5-4.65-.06-.52-.27-1.95a10.07,10.07,0,0,1-4.89,2.5c-1.23,0-4.41-2.14-4.63-2.29l-.19,1.74-.06.52Z" transform="translate(-148.5 -260.15)"/><polygon class="cls-6" points="110.52 58.79 110.5 58.77 105.52 54.14 104.96 53.62 103.59 55.39 103.66 55.49 107.97 62.01 110.52 58.79"/><polygon class="cls-6" points="115.63 54.18 115.62 54.14 110.62 58.79 110.62 58.79 113.17 62.01 117.54 55.41 117.55 55.39 116.18 53.62 115.63 54.18"/><polygon class="cls-3" points="115.63 54.18 116.18 53.62 116.18 53.62 115.56 53.62 115.56 53.63 115.62 54.14 115.63 54.18"/><path class="cls-7" d="M258.9,314.33a10.07,10.07,0,0,0,4.89-2.5h0l-.22-1.59a8.08,8.08,0,0,1-.62.66h0c-.07.06-.13.13-.2.18-1.37,1.21-4.26,1.21-4.26,1.21s-2.7,0-4.11-1.08h0l-.05.4-.07.43h0C254.49,312.19,257.67,314.35,258.9,314.33Z" transform="translate(-148.5 -260.15)"/><path class="cls-8" d="M258.4,278.18c12.5,0,21.92,9.81,21.92,22.82v.23c0,12.88-9.33,22.59-21.7,22.59S236.7,314,236.7,301v-.23c0-12.88,9.33-22.59,21.7-22.59m0-2c-14,0-23.7,11.05-23.7,24.59V301c0,13.54,9.93,24.82,23.92,24.82s23.7-11.05,23.7-24.59V301c0-13.54-9.93-24.82-23.92-24.82Z" transform="translate(-148.5 -260.15)"/><path class="cls-4" d="M148.5,329.77l10.94-12.18c4.52,5,8.92,7.89,14.45,7.89,6.54,0,10.6-3.94,10.6-13.08V261.51h17.83v51.68c0,9.36-2.71,16.36-7.45,21.1s-12,7.33-20.53,7.33C162,341.62,153.92,336.2,148.5,329.77Z" transform="translate(-148.5 -260.15)"/><path class="cls-4" d="M216.54,301.23V301c0-22.45,17.71-40.85,42.08-40.85s41.87,18.17,41.87,40.62V301c0,22.45-17.72,40.85-42.09,40.85S216.54,323.68,216.54,301.23Zm65.78,0V301c0-13.54-9.93-24.82-23.92-24.82s-23.7,11.05-23.7,24.59V301c0,13.54,9.93,24.82,23.92,24.82S282.32,314.77,282.32,301.23Z" transform="translate(-148.5 -260.15)"/><path class="cls-4" d="M315.94,261.51h36.67c9,0,16.14,2.48,20.65,7a18.15,18.15,0,0,1,5.42,13.43v.23c0,8.91-4.74,13.88-10.38,17,9.14,3.5,14.78,8.81,14.78,19.41v.23c0,14.44-11.74,21.66-29.56,21.66H315.94Zm32.95,31.93c7.67,0,12.52-2.48,12.52-8.35v-.22c0-5.2-4.06-8.13-11.39-8.13H332.87v16.7Zm4.63,31.82c7.67,0,12.29-2.71,12.29-8.58v-.22c0-5.3-3.94-8.58-12.86-8.58H332.87v17.38Z" transform="translate(-148.5 -260.15)"/><path class="cls-4" d="M392,329l10.27-12.3c7.11,5.87,14.55,9.59,23.58,9.59,7.11,0,11.4-2.82,11.4-7.44v-.23c0-4.4-2.71-6.66-15.91-10-15.91-4.06-26.18-8.46-26.18-24.15v-.22c0-14.33,11.51-23.81,27.64-23.81a45.73,45.73,0,0,1,29.34,10l-9,13.09c-7-4.85-13.87-7.78-20.53-7.78s-10.16,3-10.16,6.88v.22c0,5.19,3.39,6.89,17,10.38,16,4.18,25.05,9.93,25.05,23.7v.22c0,15.69-12,24.49-29,24.49A50.28,50.28,0,0,1,392,329Z" transform="translate(-148.5 -260.15)"/></svg>