<svg id="Camada_1" data-name="Camada 1" xmlns="http://www.w3.org/2000/svg" viewBox="0 0 88.95 86.69"><defs><style>.cls-1{fill:#716da9;}.cls-2{fill:#e7bfab;}.cls-3{fill:#070308;}.cls-4{fill:#cdcfd0;}.cls-5{fill:#fff;}.cls-6{fill:#e6bca7;}.cls-7{fill:#efeff0;}.cls-8{fill:#d9a086;}.cls-9{fill:none;stroke:#716da9;stroke-miterlimit:10;stroke-width:5px;}</style></defs><title>Icon</title><circle class="cls-1" cx="44.47" cy="43.35" r="26.22"/><path class="cls-2" d="M309.3,297.76s.63-12.34-9.38-12.3-9.38,12.3-9.38,12.3c-1.16-.06-2.45-.1-2.19,3.05a3.67,3.67,0,0,0,3.19,3.44,12.19,12.19,0,0,0,3.7,7.58c1.5,1.33,4.68,1.33,4.68,1.33s3.18,0,4.67-1.33a12.15,12.15,0,0,0,3.71-7.58,3.67,3.67,0,0,0,3.19-3.44C311.75,297.66,310.46,297.7,309.3,297.76Z" transform="translate(-255.53 -256.65)"/><path class="cls-3" d="M312.88,288.9c0-4-3.28-5.77-4.45-6.29a.1.1,0,0,1,0-.2,5.57,5.57,0,0,1,1.36.07c-3.06-2.15-7.52-1.88-9.29-1.67a.19.19,0,0,1-.12-.36,10.14,10.14,0,0,1,3.1-1.08c-7.67.15-10.87,3.34-11.77,4.47a.12.12,0,0,1-.22-.1,9.54,9.54,0,0,1,1.3-2.75,5.79,5.79,0,0,0-3.11,5.85,5.62,5.62,0,0,0-2,5.26c.86,6.13,1.34,5.93,1.34,5.93s1.45-.27,1.65,2.45c0,0,.22-6,.42-6.84a19.56,19.56,0,0,0,2.5-4.53s10.28-3.13,13.76,2.68c1.33,2.22,1,8,1,8s.48-2.11,1.83-2a51.78,51.78,0,0,0,.91-7.28,2.32,2.32,0,0,1,.68,1.18,7.58,7.58,0,0,0-.17-4.09.09.09,0,0,1,.15-.09C312.25,288,312.88,288.9,312.88,288.9Z" transform="translate(-255.53 -256.65)"/><polygon class="cls-4" points="39.56 58.13 38.88 58.13 39.49 58.7 39.56 58.13"/><path class="cls-5" d="M320,320.12l-11.83-3.38L303.41,324l-2.8-3.53-.05,0-.07,0h0l-2.8,3.53L293,316.84l-11.89,3.28a34.86,34.86,0,0,0-4.9,7.15h48.74A34.86,34.86,0,0,0,320,320.12Z" transform="translate(-255.53 -256.65)"/><path class="cls-6" d="M304.81,311.63a2.09,2.09,0,0,1-.22.2A2.09,2.09,0,0,0,304.81,311.63Z" transform="translate(-255.53 -256.65)"/><path class="cls-6" d="M295.41,312h0l0,.44.06-.43Z" transform="translate(-255.53 -256.65)"/><path class="cls-6" d="M305.73,312.64l-.23-1.75c-.23.28-.46.52-.68.74.22-.22.45-.46.68-.74Z" transform="translate(-255.53 -256.65)"/><path class="cls-6" d="M300.49,320.44l.07,0,.05,0h0l5.49-5.09-.08-.57-.29-2.14c-.69.9-4,2.73-5.36,2.75s-4.83-2.35-5.08-2.52l-.21,1.91-.06.57Z" transform="translate(-255.53 -256.65)"/><polygon class="cls-7" points="44.98 63.8 44.96 63.78 39.49 58.7 38.88 58.13 37.38 60.07 37.45 60.18 42.19 67.33 44.98 63.8"/><polygon class="cls-7" points="50.58 58.74 50.57 58.7 45.09 63.8 45.09 63.8 47.88 67.33 52.68 60.09 52.69 60.07 51.19 58.13 50.58 58.74"/><polygon class="cls-4" points="50.58 58.74 51.19 58.13 51.19 58.13 50.5 58.13 50.5 58.13 50.57 58.7 50.58 58.74"/><path class="cls-8" d="M300.37,315.4c1.4,0,4.67-1.85,5.36-2.75h0l-.23-1.75c-.23.28-.46.52-.68.74h0a2.09,2.09,0,0,1-.22.2c-1.49,1.33-4.67,1.33-4.67,1.33s-2.95,0-4.51-1.19h0l-.06.43-.07.47h0C295.54,313.05,299,315.41,300.37,315.4Z" transform="translate(-255.53 -256.65)"/><path class="cls-1" d="M255.67,300.24V300c0-23.72,18.71-43.14,44.45-43.14s44.21,19.19,44.21,42.9V300c0,23.72-18.71,43.14-44.45,43.14S255.67,324,255.67,300.24Zm69.48,0V300c0-14.3-10.49-26.22-25.27-26.22s-25,11.68-25,26V300c0,14.3,10.49,26.22,25.27,26.22S325.15,314.54,325.15,300.24Z" transform="translate(-255.53 -256.65)"/><path class="cls-9" d="M258,300.23V300c0-22.45,17.71-40.85,42.08-40.85S342,277.32,342,299.77V300c0,22.45-17.71,40.85-42.08,40.85S258,322.68,258,300.23Zm65.78,0V300c0-13.54-9.93-24.82-23.92-24.82s-23.7,11.05-23.7,24.59V300c0,13.54,9.93,24.82,23.92,24.82S323.81,313.77,323.81,300.23Z" transform="translate(-255.53 -256.65)"/><path class="cls-5" d="M258,300.23V300c0-22.45,17.71-40.85,42.08-40.85S342,277.32,342,299.77V300c0,22.45-17.71,40.85-42.08,40.85S258,322.68,258,300.23Zm65.78,0V300c0-13.54-9.93-24.82-23.92-24.82s-23.7,11.05-23.7,24.59V300c0,13.54,9.93,24.82,23.92,24.82S323.81,313.77,323.81,300.23Z" transform="translate(-255.53 -256.65)"/></svg>